<?xml version="1.0" encoding="UTF-8"?>
<svg version="1.1" xmlns="http://www.w3.org/2000/svg" width="512" height="512">
<path d="M0 0 C0.829552 0.00021149 1.659104 0.00042297 2.51379395 0.00064087 C16.51747414 0.03611578 29.89662713 1.14246992 43.5625 4.375 C44.36445801 4.55691895 45.16641602 4.73883789 45.99267578 4.92626953 C76.83272595 12.08157041 105.09031037 28.42979124 128.5625 49.375 C129.09391602 49.84470215 129.62533203 50.3144043 130.17285156 50.79833984 C136.39530673 56.31207429 142.30267279 61.91728253 147.5625 68.375 C148.4516959 69.42849263 149.3410316 70.48186728 150.23046875 71.53515625 C180.29270133 107.61776341 200.32625453 155.88736367 200.80078125 203.1953125 C200.8105751 204.00839371 200.82036896 204.82147491 200.83045959 205.65919495 C200.99872143 223.24124778 200.95076903 240.22990355 196.5625 257.375 C196.34287598 258.25559082 196.12325195 259.13618164 195.89697266 260.04345703 C184.3424636 305.43558709 161.14870297 347.82250668 133.5625 385.375 C132.38369728 386.99839498 131.20533077 388.62210678 130.02734375 390.24609375 C123.77245601 398.83558174 117.39217917 407.23340505 110.5625 415.375 C109.06144691 417.22831423 107.561466 419.08249732 106.0625 420.9375 C102.38687414 425.43277761 98.57005389 429.77033107 94.66015625 434.0625 C92.86742554 436.03884372 91.11454773 438.0395673 89.375 440.0625 C80.83709148 449.83127405 71.84276505 459.18645408 62.6875 468.375 C61.99865723 469.06843506 61.30981445 469.76187012 60.60009766 470.47631836 C56.08338787 474.97944651 51.3944781 479.21461453 46.5625 483.375 C45.47904592 484.33563723 44.39693697 485.29779447 43.31640625 486.26171875 C12.07395399 513.82944504 12.07395399 513.82944504 -1.76171875 512.96875 C-27.85512224 507.17868091 -53.76786488 476.09134986 -71.9375 458 C-72.6790332 457.26313965 -73.42056641 456.5262793 -74.18457031 455.76708984 C-78.24108617 451.69864846 -82.12370011 447.53576794 -85.87402344 443.18359375 C-87.96804906 440.76127304 -90.13988885 438.41433328 -92.3125 436.0625 C-96.35029322 431.63003526 -100.21057434 427.09757823 -103.97265625 422.4296875 C-105.77835175 420.1918842 -107.59729312 417.97018101 -109.43359375 415.7578125 C-117.00969997 406.59480359 -124.0830491 397.1552109 -130.95458984 387.45458984 C-132.29290961 385.57776933 -133.64978462 383.71722236 -135.01953125 381.86328125 C-142.45095547 371.75981741 -148.98772097 361.12463172 -155.4375 350.375 C-155.94039551 349.5411377 -156.44329102 348.70727539 -156.96142578 347.84814453 C-180.78822998 308.09487867 -200.39783483 263.43140689 -199.4375 216.375 C-196.7975 216.375 -194.1575 216.375 -191.4375 216.375 C-191.4375 211.095 -191.4375 205.815 -191.4375 200.375 C-194.0775 200.375 -196.7175 200.375 -199.4375 200.375 C-199.32352456 197.93652549 -199.19679026 195.49986826 -199.0625 193.0625 C-199.01609375 192.02706055 -199.01609375 192.02706055 -198.96875 190.97070312 C-198.75625081 187.30509211 -198.51816139 185.49599208 -196.4375 182.375 C-194.1275 182.705 -191.8175 183.035 -189.4375 183.375 C-189.37691406 182.79492188 -189.31632812 182.21484375 -189.25390625 181.6171875 C-188.77733439 177.17407137 -188.22741334 172.77594577 -187.4375 168.375 C-189.7475 168.045 -192.0575 167.715 -194.4375 167.375 C-190.92652949 132.02315897 -170.29098267 95.76974305 -147.4375 69.375 C-146.37982422 68.15103516 -146.37982422 68.15103516 -145.30078125 66.90234375 C-143.0516962 64.35445746 -140.75865155 61.85739472 -138.4375 59.375 C-137.13232422 57.97121094 -137.13232422 57.97121094 -135.80078125 56.5390625 C-123.45546338 43.56692619 -108.84625538 33.38124737 -93.4375 24.375 C-92.85387695 24.02630859 -92.27025391 23.67761719 -91.66894531 23.31835938 C-63.95476627 6.89397905 -31.93528753 -0.07560968 0 0 Z " fill="#006EDA" transform="translate(255.4375,-0.37499999999999994)"/>
<path d="M0 0 C0.88171875 0.25007813 1.7634375 0.50015625 2.671875 0.7578125 C4.82462486 1.42195873 6.90247722 2.17889182 9 3 C9.87011719 3.32355469 10.74023438 3.64710937 11.63671875 3.98046875 C26.17411897 9.66732892 38.59599268 17.40282713 50 28 C50.94488281 28.85207031 51.88976562 29.70414063 52.86328125 30.58203125 C64.78554637 41.82976935 73.64391931 55.93845635 80 71 C80 71.99 80 72.98 80 74 C81.11375 73.505 81.11375 73.505 82.25 73 C85 72 85 72 89 72 C89.99 75.96 90.98 79.92 92 84 C87 86 87 86 84 86 C84.2165625 86.74765625 84.433125 87.4953125 84.65625 88.265625 C85.07390625 89.74289063 85.07390625 89.74289063 85.5 91.25 C85.91765625 92.71179688 85.91765625 92.71179688 86.34375 94.203125 C87 97 87 97 87 101 C89.64 100.67 92.28 100.34 95 100 C95.33 105.28 95.66 110.56 96 116 C93.36 116 90.72 116 88 116 C88.03480469 116.680625 88.06960938 117.36125 88.10546875 118.0625 C88.94089207 147.97861118 75.18857274 177.19135005 55.12866211 198.72680664 C33.95717954 221.00358385 4.80596493 235.07740955 -26.09765625 236.25 C-35.8666634 236.44887667 -45.39815291 235.9159649 -55 234 C-56.2478125 233.75507813 -57.495625 233.51015625 -58.78125 233.2578125 C-73.59037314 230.08298623 -87.69237338 223.83468247 -100 215 C-100.73992187 214.47019531 -101.47984375 213.94039062 -102.2421875 213.39453125 C-129.52642905 192.95562432 -146.22710435 164.96198652 -151.59277344 131.22753906 C-155.67404407 98.88077779 -146.35461191 67.39125554 -126.64941406 41.68066406 C-107.12368566 17.04310242 -79.13490865 0.88309622 -47.93701172 -3.67041016 C-31.67662791 -5.49514151 -15.67989044 -4.64966448 0 0 Z " fill="#F9F9F9" transform="translate(288,84)"/>
<path d="M0 0 C-0.5168335 0.1952124 -1.03366699 0.3904248 -1.56616211 0.59155273 C-25.81686849 9.82647449 -46.55379506 21.77987378 -66 39 C-66.9178125 39.79535156 -67.835625 40.59070312 -68.78125 41.41015625 C-73.96497993 45.96153359 -78.64760992 50.6514959 -83 56 C-83.82113281 56.99515625 -84.64226562 57.9903125 -85.48828125 59.015625 C-121.48866123 103.28793694 -138.64405434 159.70709206 -133.69091797 216.546875 C-132.0624514 230.45643367 -128.42556672 243.7500566 -124 257 C-123.48160302 258.61452946 -122.96337438 260.22911298 -122.4453125 261.84375 C-105.84164329 312.42807921 -74.1420397 358.63305812 -40 399 C-39.47132324 399.62777344 -38.94264648 400.25554687 -38.39794922 400.90234375 C-31.94344638 408.55632016 -25.33513818 416.04195371 -18.51416016 423.37255859 C-16.83326927 425.17920462 -15.15700098 426.99009018 -13.48046875 428.80078125 C-1.6493116 441.56877829 -1.6493116 441.56877829 11.140625 453.359375 C13.18120853 455.15988988 15.09307545 457.05932457 17 459 C17.7734375 458.21496094 18.546875 457.42992187 19.34375 456.62109375 C24.48981268 451.42202157 29.64078204 446.32818437 35.203125 441.5703125 C40.14719216 437.24962772 44.51787396 432.45819957 48.79296875 427.48828125 C51.15534831 424.82485509 53.58502346 422.23543983 56.02783203 419.64599609 C61.50612405 413.83752946 66.80740185 407.98180195 71.79296875 401.73828125 C73.8456283 399.1915302 75.94907424 396.70230307 78.07885742 394.22045898 C83.2122263 388.2316756 88.08820821 382.11153316 92.73535156 375.73291016 C94.14652679 373.7992187 95.56976467 371.87464978 96.9921875 369.94921875 C127.20936424 328.82207017 154.36432625 282.45889524 165 232 C165.16081055 231.24477051 165.32162109 230.48954102 165.48730469 229.71142578 C174.59394658 184.86356151 164.82159024 134.7769866 143 95 C142.2835579 93.6551057 141.56741919 92.31004974 140.8515625 90.96484375 C135.8997473 81.79173732 130.29863741 73.29907422 124 65 C123.35160156 64.12601562 122.70320313 63.25203125 122.03515625 62.3515625 C111.13512715 48.32182207 97.74425308 34.93967416 83 25 C82.3100293 24.53045898 81.62005859 24.06091797 80.90917969 23.57714844 C66.2978862 13.73740479 50.82316914 5.40609705 34 0 C34 -0.33 34 -0.66 34 -1 C54.52778326 0.21807725 73.57705557 6.04489126 92 15 C92.69270996 15.33257812 93.38541992 15.66515625 94.09912109 16.0078125 C141.13816829 38.89355907 173.90786317 82.45710285 191 131 C204.7034667 171.63351383 205.24108245 216.49377098 191 257 C190.6999707 257.86544434 190.39994141 258.73088867 190.09082031 259.62255859 C175.56383209 301.1313122 152.5528737 338.14986469 126 373 C125.51192871 373.64114746 125.02385742 374.28229492 124.52099609 374.94287109 C115.54934922 386.66883522 105.94177507 397.83971881 96.015625 408.765625 C94.12555342 410.86082063 92.27787513 412.98618566 90.4375 415.125 C87.50488111 418.49785036 84.40220954 421.64614251 81.1875 424.75 C79.28244023 426.70949005 77.51217 428.71563755 75.734375 430.7890625 C72.14027928 434.92476051 68.27784885 438.66626148 64.25 442.375 C63.54609131 443.02710449 62.84218262 443.67920898 62.11694336 444.35107422 C60.71415764 445.64918401 59.30982681 446.94562649 57.90380859 448.24023438 C56.29594518 449.72644616 54.7028909 451.22865544 53.11328125 452.734375 C29.27593961 475.07503822 29.27593961 475.07503822 18 478 C8.33054862 477.16589397 -0.36684872 468.31956212 -7.44294739 462.31428528 C-8.9494529 461.04266606 -10.4681929 459.78558513 -11.98730469 458.52905273 C-21.36936969 450.70816959 -30.02758463 442.24864606 -38.62524414 433.58056641 C-40.95333389 431.23404072 -43.28950701 428.89579595 -45.62695312 426.55859375 C-47.1358916 425.04474408 -48.64437173 423.53043738 -50.15234375 422.015625 C-50.83787827 421.32897766 -51.52341278 420.64233032 -52.22972107 419.93487549 C-56.67725133 415.44402591 -60.88023031 410.79179628 -65 406 C-66.04548259 404.80867245 -67.09215663 403.61838817 -68.140625 402.4296875 C-75.38690292 394.16450968 -82.32195365 385.729176 -89 377 C-89.55381348 376.28279785 -90.10762695 375.5655957 -90.67822266 374.82666016 C-104.62521756 356.73729674 -117.74086945 337.89398829 -129 318 C-129.45826172 317.1941748 -129.91652344 316.38834961 -130.38867188 315.55810547 C-144.67573696 290.29563896 -157.26797729 263.60192041 -163 235 C-163.56217958 232.47909519 -164.12466401 229.95825834 -164.6875 227.4375 C-166.76333623 217.48702416 -167.11857998 208.11882488 -167 198 C-169.64 198 -172.28 198 -175 198 C-175 192.72 -175 187.44 -175 182 C-177.64 182 -180.28 182 -183 182 C-182.88602456 179.56152549 -182.75929026 177.12486826 -182.625 174.6875 C-182.57859375 173.65206055 -182.57859375 173.65206055 -182.53125 172.59570312 C-182.31875081 168.93009211 -182.08066139 167.12099208 -180 164 C-177.69 164.33 -175.38 164.66 -173 165 C-172.93941406 164.41992188 -172.87882812 163.83984375 -172.81640625 163.2421875 C-172.33983439 158.79907137 -171.78991334 154.40094577 -171 150 C-168.03 150 -165.06 150 -162 150 C-161.731875 148.87207031 -161.46375 147.74414062 -161.1875 146.58203125 C-153.0121509 113.27850479 -137.71786951 83.65465204 -115 58 C-114.20464844 57.0821875 -113.40929687 56.164375 -112.58984375 55.21875 C-108.03828601 50.0348146 -103.34778768 45.3534754 -98 41 C-96.99324219 40.16726562 -95.98648438 39.33453125 -94.94921875 38.4765625 C-73.80014179 21.24375446 -49.4412887 8.79075281 -23 2 C-21.75089844 1.67708984 -21.75089844 1.67708984 -20.4765625 1.34765625 C-13.77513088 -0.26303872 -6.74508143 -1.8260361 0 0 Z " fill="#005DB9" transform="translate(239,18)"/>
<path d="M0 0 C0.99854256 -0.00832352 0.99854256 -0.00832352 2.01725769 -0.01681519 C4.20691044 -0.02857861 6.39447797 -0.00437471 8.58398438 0.02148438 C10.11185614 0.02319649 11.63973084 0.02312877 13.16760254 0.0213623 C16.36543997 0.02301365 19.56257476 0.04167599 22.76025391 0.07324219 C26.85265379 0.1129199 30.94413402 0.11728643 35.03668976 0.10977936 C38.19037249 0.1067051 41.3438497 0.11884625 44.4974823 0.13591003 C46.00610565 0.14292529 47.5147523 0.14606636 49.02339172 0.1452179 C51.13450962 0.14702221 53.24453978 0.16845545 55.35546875 0.1953125 C57.15485901 0.20794128 57.15485901 0.20794128 58.99060059 0.2208252 C62.47938538 0.65256382 64.38053785 1.52169287 67.17773438 3.61523438 C68.33183691 5.92343945 68.29876407 7.22307714 68.29125977 9.78955078 C68.29118423 10.65029205 68.2911087 11.51103333 68.29103088 12.39785767 C68.2858696 13.3281076 68.28070831 14.25835754 68.27539062 15.21679688 C68.2732682 16.64419693 68.2732682 16.64419693 68.27110291 18.10043335 C68.2654945 21.14706534 68.25294057 24.1936245 68.24023438 27.24023438 C68.23522046 29.30273332 68.23065736 31.36523341 68.2265625 33.42773438 C68.21552233 38.49026254 68.19825204 43.5527361 68.17773438 48.61523438 C69.42385498 48.59952393 70.66997559 48.58381348 71.95385742 48.56762695 C76.58497635 48.51325364 81.21606715 48.47885726 85.84741211 48.45043945 C87.85039009 48.43536972 89.85333517 48.41491028 91.85620117 48.38891602 C94.73820118 48.3524531 97.61976422 48.33548977 100.50195312 48.32226562 C101.39484543 48.30678177 102.28773773 48.29129791 103.20768738 48.27534485 C108.01246505 48.2740495 111.30054296 48.43331684 115.17773438 51.61523438 C116.60439454 54.4685547 116.3208113 56.90711711 116.33886719 60.09692383 C116.34383209 60.76218079 116.348797 61.42743774 116.35391235 62.112854 C116.36854059 64.31808501 116.37533764 66.52324403 116.38085938 68.72851562 C116.38661104 70.26067609 116.39236878 71.79283653 116.39813232 73.32499695 C116.40864471 76.5404799 116.41448556 79.75593783 116.41796875 82.97143555 C116.42344879 87.08735328 116.44746504 91.20293941 116.4759407 95.31875324 C116.49458689 98.48523414 116.49977377 101.65163557 116.50130463 104.81816673 C116.5043281 106.33519488 116.51234636 107.85222172 116.52548981 109.36919594 C116.54258957 111.49483887 116.54066082 113.61967708 116.53417969 115.74536133 C116.53964813 117.55832451 116.53964813 117.55832451 116.54522705 119.40791321 C116.14025309 122.94235521 115.35714972 124.82342512 113.17773438 127.61523438 C110.42188086 128.53385221 108.81812747 128.7372776 105.98168945 128.72875977 C105.14104446 128.72868423 104.30039948 128.7286087 103.4342804 128.72853088 C102.53106552 128.7233696 101.62785065 128.71820831 100.69726562 128.71289062 C99.30528206 128.7107682 99.30528206 128.7107682 97.88517761 128.70860291 C94.92016379 128.70300374 91.95522538 128.69045142 88.99023438 128.67773438 C86.98046984 128.67271927 84.97070412 128.66815638 82.9609375 128.6640625 C78.03317405 128.65303459 73.105467 128.63577054 68.17773438 128.61523438 C68.20130005 130.48441528 68.20130005 130.48441528 68.2253418 132.39135742 C68.27971511 137.02247635 68.31411149 141.65356715 68.3425293 146.28491211 C68.35759903 148.28789009 68.37805847 150.29083517 68.40405273 152.29370117 C68.44051565 155.17570118 68.45747898 158.05726422 68.47070312 160.93945312 C68.48618698 161.83234543 68.50167084 162.72523773 68.5176239 163.64518738 C68.51891012 168.4161215 68.41802325 171.81475515 65.17773438 175.61523438 C61.7763977 176.74901327 59.15369216 176.75607614 55.56665039 176.77636719 C54.89964111 176.78133209 54.23263184 176.786297 53.54541016 176.79141235 C51.34080979 176.80600722 49.13628134 176.81283076 46.93164062 176.81835938 C45.39851378 176.82411214 43.86538694 176.82986986 42.33226013 176.83563232 C39.11855738 176.84613407 35.9048796 176.85198243 32.69116211 176.85546875 C28.57405421 176.86095796 24.45727627 176.88499827 20.34027195 176.9134407 C17.17383356 176.93206534 14.00747479 176.93727254 10.84098625 176.93880463 C9.32313161 176.94183107 7.80527836 176.94985938 6.28747749 176.96298981 C4.16413352 176.98005061 2.04159765 176.97817077 -0.08178711 176.97167969 C-1.28963364 176.97532532 -2.49748016 176.97897095 -3.7419281 176.98272705 C-7.10057853 176.58203089 -8.46788703 176.00404465 -10.82226562 173.61523438 C-11.74088346 170.85938086 -11.94430885 169.25562747 -11.93579102 166.41918945 C-11.93571548 165.57854446 -11.93563995 164.73789948 -11.93556213 163.8717804 C-11.93040085 162.96856552 -11.92523956 162.06535065 -11.91992188 161.13476562 C-11.91850693 160.20677658 -11.91709198 159.27878754 -11.91563416 158.32267761 C-11.91003499 155.35766379 -11.89748267 152.39272538 -11.88476562 149.42773438 C-11.87975052 147.41796984 -11.87518763 145.40820412 -11.87109375 143.3984375 C-11.86006584 138.47067405 -11.84280179 133.542967 -11.82226562 128.61523438 C-13.10391602 128.63094482 -14.38556641 128.64665527 -15.70605469 128.6628418 C-20.46201287 128.71714993 -25.21794365 128.7515878 -29.97412109 128.7800293 C-32.03243621 128.79511388 -34.0907192 128.81558425 -36.14892578 128.84155273 C-39.10782806 128.87795023 -42.0663053 128.89496404 -45.02539062 128.90820312 C-46.40528168 128.93142891 -46.40528168 128.93142891 -47.81304932 128.9551239 C-54.16783868 128.95679711 -54.16783868 128.95679711 -57.37207031 127.28442383 C-60.31419989 123.89800297 -59.96941704 120.30044797 -60.01513672 116.02001953 C-60.02331421 115.35461655 -60.0314917 114.68921356 -60.03991699 114.00364685 C-60.06470916 111.80387258 -60.08126939 109.60416249 -60.09570312 107.40429688 C-60.1010268 106.65204205 -60.10635048 105.89978722 -60.11183548 105.12473679 C-60.13853792 101.14436615 -60.1579236 97.16402659 -60.17236328 93.18359375 C-60.18571243 89.89131955 -60.21358572 86.59966371 -60.25439453 83.30761719 C-60.30370527 79.32944295 -60.32848171 75.3518303 -60.33559036 71.37336349 C-60.34230223 69.85908246 -60.35752291 68.34481392 -60.38148117 66.83070755 C-60.41313503 64.70955411 -60.4131713 62.59056628 -60.40576172 60.46923828 C-60.41384857 59.26361237 -60.42193542 58.05798645 -60.43026733 56.81582642 C-59.63827534 52.646688 -58.15385131 51.17194399 -54.82226562 48.61523438 C-52.58854675 48.01396179 -52.58854675 48.01396179 -50.30737305 48.04760742 C-49.44685837 48.04798508 -48.58634369 48.04836273 -47.69975281 48.04875183 C-46.78498672 48.07455826 -45.87022064 48.10036469 -44.92773438 48.12695312 C-43.98037918 48.13402786 -43.03302399 48.1411026 -42.05696106 48.14839172 C-39.04041541 48.17631104 -36.02574723 48.23904523 -33.00976562 48.30273438 C-30.96096437 48.32782042 -28.91213392 48.35063305 -26.86328125 48.37109375 C-21.84888942 48.42612979 -16.83589549 48.51238582 -11.82226562 48.61523438 C-11.84844971 47.3388208 -11.87463379 46.06240723 -11.90161133 44.74731445 C-11.99221978 40.00449198 -12.0495539 35.26174575 -12.09692383 30.51831055 C-12.12204369 28.46674732 -12.15614599 26.41527337 -12.19946289 24.36401367 C-12.26022565 21.41237347 -12.28850055 18.46191787 -12.31054688 15.50976562 C-12.3363533 14.59499954 -12.36215973 13.68023346 -12.38874817 12.73774719 C-12.38912582 11.87723251 -12.38950348 11.01671783 -12.38989258 10.13012695 C-12.40654716 9.00094597 -12.40654716 9.00094597 -12.42353821 7.84895325 C-10.69858759 1.44078688 -6.03146875 -0.01032959 0 0 Z " fill="#E53A46" transform="translate(227.822265625,111.384765625)"/>
<path d="M0 0 C0.829552 0.00021149 1.659104 0.00042297 2.51379395 0.00064087 C16.51747414 0.03611578 29.89662713 1.14246992 43.5625 4.375 C44.36445801 4.55691895 45.16641602 4.73883789 45.99267578 4.92626953 C76.83272595 12.08157041 105.09031037 28.42979124 128.5625 49.375 C129.09391602 49.84470215 129.62533203 50.3144043 130.17285156 50.79833984 C136.39530673 56.31207429 142.30267279 61.91728253 147.5625 68.375 C148.4516959 69.42849263 149.3410316 70.48186728 150.23046875 71.53515625 C180.29270133 107.61776341 200.32625453 155.88736367 200.80078125 203.1953125 C200.8105751 204.00839371 200.82036896 204.82147491 200.83045959 205.65919495 C200.99872143 223.24124778 200.95076903 240.22990355 196.5625 257.375 C196.34287598 258.25559082 196.12325195 259.13618164 195.89697266 260.04345703 C184.3424636 305.43558709 161.14870297 347.82250668 133.5625 385.375 C132.38369728 386.99839498 131.20533077 388.62210678 130.02734375 390.24609375 C123.77245601 398.83558174 117.39217917 407.23340505 110.5625 415.375 C109.06144691 417.22831423 107.561466 419.08249732 106.0625 420.9375 C102.38687414 425.43277761 98.57005389 429.77033107 94.66015625 434.0625 C92.86742554 436.03884372 91.11454773 438.0395673 89.375 440.0625 C80.83709148 449.83127405 71.84276505 459.18645408 62.6875 468.375 C61.99865723 469.06843506 61.30981445 469.76187012 60.60009766 470.47631836 C56.08338787 474.97944651 51.3944781 479.21461453 46.5625 483.375 C45.47904592 484.33563723 44.39693697 485.29779447 43.31640625 486.26171875 C12.07395399 513.82944504 12.07395399 513.82944504 -1.76171875 512.96875 C-27.85512224 507.17868091 -53.76786488 476.09134986 -71.9375 458 C-72.6790332 457.26313965 -73.42056641 456.5262793 -74.18457031 455.76708984 C-78.24108617 451.69864846 -82.12370011 447.53576794 -85.87402344 443.18359375 C-87.96804906 440.76127304 -90.13988885 438.41433328 -92.3125 436.0625 C-96.35029322 431.63003526 -100.21057434 427.09757823 -103.97265625 422.4296875 C-105.77835175 420.1918842 -107.59729312 417.97018101 -109.43359375 415.7578125 C-117.00969997 406.59480359 -124.0830491 397.1552109 -130.95458984 387.45458984 C-132.29290961 385.57776933 -133.64978462 383.71722236 -135.01953125 381.86328125 C-142.45095547 371.75981741 -148.98772097 361.12463172 -155.4375 350.375 C-155.94039551 349.5411377 -156.44329102 348.70727539 -156.96142578 347.84814453 C-180.78822998 308.09487867 -200.39783483 263.43140689 -199.4375 216.375 C-194.1575 216.375 -188.8775 216.375 -183.4375 216.375 C-183.35113281 217.756875 -183.26476562 219.13875 -183.17578125 220.5625 C-181.0569952 250.80117483 -172.84420496 277.86680039 -160.4375 305.375 C-159.91615479 306.55328369 -159.91615479 306.55328369 -159.38427734 307.75537109 C-143.61056872 343.30797777 -120.59691103 375.78505911 -95.86572266 405.64257812 C-93.8248751 408.11810877 -91.82322864 410.62498215 -89.8125 413.125 C-85.7901575 418.04201795 -81.53910928 422.7088579 -77.2109375 427.35546875 C-75.15833697 429.56567196 -73.17621588 431.82652087 -71.20654297 434.11083984 C-67.72749099 438.09232187 -64.09375534 441.87987219 -60.359375 445.62109375 C-59.70729065 446.2765065 -59.0552063 446.93191925 -58.38336182 447.60719299 C-57.01322761 448.98235046 -55.64177202 450.35619255 -54.26904297 451.72875977 C-52.20119339 453.79879215 -50.14148475 455.87669673 -48.08203125 457.95507812 C-40.83593162 465.23164554 -33.51892833 472.02803308 -25.4375 478.375 C-23.64172823 479.89098391 -21.84964059 481.4113506 -20.0625 482.9375 C-16.05582939 486.19687193 -11.96063358 489.20075617 -7.625 492 C-6.58730469 492.67289062 -5.54960937 493.34578125 -4.48046875 494.0390625 C-0.81679838 495.64750315 0.76994136 495.53845425 4.5625 494.375 C12.2337855 490.45992086 18.99545207 484.89132026 25.5625 479.375 C26.10841797 478.91931641 26.65433594 478.46363281 27.21679688 477.99414062 C33.9452063 472.36606777 40.45610836 466.66034916 46.57421875 460.36328125 C48.39622286 458.54127714 50.27030405 456.89627347 52.25 455.25 C58.2299161 450.11249271 63.41649304 444.14648883 68.74121094 438.34912109 C70.49595093 436.44713348 72.26426339 434.55904591 74.0390625 432.67578125 C79.72341259 426.63451068 85.22340493 420.53187557 90.41015625 414.05078125 C92.62091478 411.30237908 94.90045356 408.6226202 97.1875 405.9375 C133.45743705 362.45863137 168.26760007 309.56282708 179.5625 253.375 C179.84738281 252.13234375 180.13226563 250.8896875 180.42578125 249.609375 C191.56002636 200.85087984 178.6622784 146.30171245 152.5625 104.375 C130.76129394 70.35841721 101.56798531 45.51487389 64.5625 29.375 C63.36500122 28.8490625 63.36500122 28.8490625 62.14331055 28.3125 C55.66060839 25.58321429 49.09240703 23.83774086 42.25 22.25 C41.21166016 21.99863281 40.17332031 21.74726563 39.10351562 21.48828125 C26.80752641 18.57988009 15.02096929 17.02515895 2.375 17.125 C1.10124512 17.13321777 -0.17250977 17.14143555 -1.48486328 17.14990234 C-44.53590575 17.65805654 -85.42236468 33.92858295 -117.13671875 63.265625 C-119.2088264 65.16535018 -121.33591131 66.95726381 -123.5 68.75 C-128.46415625 73.07490877 -132.36893489 78.22628486 -136.4375 83.375 C-137.07300781 84.12136719 -137.70851562 84.86773437 -138.36328125 85.63671875 C-156.98768255 107.73150538 -170.53280264 136.30836489 -176.58984375 164.5078125 C-177.4375 168.375 -177.4375 168.375 -178.4375 169.375 C-180.56519662 169.31052434 -182.69089183 169.17328808 -184.8125 169 C-185.97523438 168.90976563 -187.13796875 168.81953125 -188.3359375 168.7265625 C-191.4375 168.375 -191.4375 168.375 -194.4375 167.375 C-190.92652949 132.02315897 -170.29098267 95.76974305 -147.4375 69.375 C-146.37982422 68.15103516 -146.37982422 68.15103516 -145.30078125 66.90234375 C-143.0516962 64.35445746 -140.75865155 61.85739472 -138.4375 59.375 C-137.13232422 57.97121094 -137.13232422 57.97121094 -135.80078125 56.5390625 C-123.45546338 43.56692619 -108.84625538 33.38124737 -93.4375 24.375 C-92.85387695 24.02630859 -92.27025391 23.67761719 -91.66894531 23.31835938 C-63.95476627 6.89397905 -31.93528753 -0.07560968 0 0 Z " fill="#000001" transform="translate(255.4375,-0.37499999999999994)"/>
<path d="M0 0 C20.52778326 1.21807725 39.57705557 7.04489126 58 16 C58.69270996 16.33257812 59.38541992 16.66515625 60.09912109 17.0078125 C107.13816829 39.89355907 139.90786317 83.45710285 157 132 C170.7034667 172.63351383 171.24108245 217.49377098 157 258 C156.6999707 258.86544434 156.39994141 259.73088867 156.09082031 260.62255859 C141.56383209 302.1313122 118.5528737 339.14986469 92 374 C91.51192871 374.64114746 91.02385742 375.28229492 90.52099609 375.94287109 C81.54934922 387.66883522 71.94177507 398.83971881 62.015625 409.765625 C60.12555342 411.86082063 58.27787513 413.98618566 56.4375 416.125 C53.50488111 419.49785036 50.40220954 422.64614251 47.1875 425.75 C45.28244023 427.70949005 43.51217 429.71563755 41.734375 431.7890625 C38.14025789 435.92478512 34.27769716 439.66606616 30.25 443.375 C29.5489917 444.0249292 28.8479834 444.6748584 28.12573242 445.34448242 C26.72601344 446.64054229 25.3246125 447.93478849 23.92138672 449.22705078 C22.26387888 450.75650719 20.61601524 452.29523218 18.97265625 453.83984375 C14.15691001 458.31615414 9.20126782 462.58842132 4.0625 466.6875 C3.51827393 467.13456299 2.97404785 467.58162598 2.41333008 468.04223633 C-1.36226082 470.98299362 -1.36226082 470.98299362 -4.05078125 471.0546875 C-6.83476419 469.54832398 -8.93997653 467.59554824 -11.25 465.4375 C-12.14203125 464.61121094 -13.0340625 463.78492188 -13.953125 462.93359375 C-14.62859375 462.29550781 -15.3040625 461.65742188 -16 461 C-12.74417568 453.40878855 -5.03566422 447.95893849 1.09765625 442.67578125 C6.0640953 438.30082776 10.48270788 433.49908113 14.79296875 428.48828125 C17.15534831 425.82485509 19.58502346 423.23543983 22.02783203 420.64599609 C27.50612405 414.83752946 32.80740185 408.98180195 37.79296875 402.73828125 C39.8456283 400.1915302 41.94907424 397.70230307 44.07885742 395.22045898 C49.2122263 389.2316756 54.08820821 383.11153316 58.73535156 376.73291016 C60.14652679 374.7992187 61.56976467 372.87464978 62.9921875 370.94921875 C93.20936424 329.82207017 120.36432625 283.45889524 131 233 C131.16081055 232.24477051 131.32162109 231.48954102 131.48730469 230.71142578 C140.59394658 185.86356151 130.82159024 135.7769866 109 96 C108.2835579 94.6551057 107.56741919 93.31004974 106.8515625 91.96484375 C101.8997473 82.79173732 96.29863741 74.29907422 90 66 C89.35160156 65.12601562 88.70320313 64.25203125 88.03515625 63.3515625 C77.13512715 49.32182207 63.74425308 35.93967416 49 26 C48.3100293 25.53045898 47.62005859 25.06091797 46.90917969 24.57714844 C32.2978862 14.73740479 16.82316914 6.40609705 0 1 C0 0.67 0 0.34 0 0 Z " fill="#3F76DC" transform="translate(273,17)"/>
<path d="M0 0 C1.23169922 1.05960938 1.23169922 1.05960938 2.48828125 2.140625 C3.92107422 3.35492188 3.92107422 3.35492188 5.3828125 4.59375 C20.89679399 18.05606819 33.15440039 35.92873319 40.48828125 55.140625 C40.48828125 56.130625 40.48828125 57.120625 40.48828125 58.140625 C38.36487965 58.97802281 36.23950845 59.81042783 34.11328125 60.640625 C32.92992187 61.1046875 31.7465625 61.56875 30.52734375 62.046875 C27.48828125 63.140625 27.48828125 63.140625 25.48828125 63.140625 C25.24819336 62.58826172 25.00810547 62.03589844 24.76074219 61.46679688 C10.378355 28.80538327 -10.92932028 8.74651526 -42.8515625 -6.44921875 C-47.53149439 -8.25226615 -52.25273209 -9.37624357 -57.13671875 -10.484375 C-58.06484375 -10.7009375 -58.99296875 -10.9175 -59.94921875 -11.140625 C-62.46776609 -11.72515891 -64.98669552 -12.30348723 -67.51171875 -12.859375 C-68.32125 -13.04113281 -69.13078125 -13.22289063 -69.96484375 -13.41015625 C-98.59007971 -18.45908591 -129.50505897 -9.65648129 -153.4140625 6.046875 C-180.71657166 25.34626437 -198.65669594 53.04592449 -204.6171875 85.91796875 C-209.43313021 116.28940148 -202.18750034 147.58704919 -184.88671875 172.9375 C-164.49046372 200.44560712 -138.22602172 216.80911116 -104.51171875 223.140625 C-73.28175822 227.60257648 -41.75780336 220.37680499 -16.19921875 201.703125 C9.90085626 181.2708947 27.74176511 153.51530801 32.15234375 120.26953125 C32.69331546 115.2309459 33.12289168 110.19518066 33.48828125 105.140625 C38.76828125 105.140625 44.04828125 105.140625 49.48828125 105.140625 C50.87986446 136.68317786 38.15697365 169.50315678 17.48828125 193.140625 C16.23917969 194.58888672 16.23917969 194.58888672 14.96484375 196.06640625 C-7.26746666 221.38350532 -39.06240966 237.24933329 -72.51171875 241.140625 C-77.28665518 241.42328437 -82.04173445 241.47454005 -86.82421875 241.453125 C-88.10441895 241.44893555 -89.38461914 241.44474609 -90.70361328 241.44042969 C-99.71575064 241.33258234 -107.80693412 240.56500679 -116.51171875 238.140625 C-117.71957031 237.8621875 -118.92742187 237.58375 -120.171875 237.296875 C-154.11112717 229.15426228 -183.5255323 206.94189347 -202.11645508 177.63598633 C-209.11153214 166.21213525 -214.08360564 154.3001644 -217.82421875 141.453125 C-218.0668042 140.62280762 -218.30938965 139.79249023 -218.55932617 138.93701172 C-221.73359872 127.46744156 -222.87995941 116.14412417 -222.82421875 104.265625 C-222.81793457 102.42254761 -222.81793457 102.42254761 -222.81152344 100.54223633 C-222.70113986 91.67573404 -221.87319603 83.71115892 -219.51171875 75.140625 C-219.23328125 73.93148437 -218.95484375 72.72234375 -218.66796875 71.4765625 C-210.42918362 37.1719658 -187.68001092 7.09445749 -157.73974609 -11.28833008 C-145.903979 -18.31220187 -133.90859679 -23.57785672 -120.51171875 -26.859375 C-119.43792969 -27.14554687 -118.36414063 -27.43171875 -117.2578125 -27.7265625 C-76.81968904 -38.35485527 -31.81706271 -26.45346622 0 0 Z " fill="#010203" transform="translate(342.51171875,94.859375)"/>
<path d="M0 0 C0.99854256 -0.00832352 0.99854256 -0.00832352 2.01725769 -0.01681519 C4.20691044 -0.02857861 6.39447797 -0.00437471 8.58398438 0.02148438 C10.11185614 0.02319649 11.63973084 0.02312877 13.16760254 0.0213623 C16.36543997 0.02301365 19.56257476 0.04167599 22.76025391 0.07324219 C26.85265379 0.1129199 30.94413402 0.11728643 35.03668976 0.10977936 C38.19037249 0.1067051 41.3438497 0.11884625 44.4974823 0.13591003 C46.00610565 0.14292529 47.5147523 0.14606636 49.02339172 0.1452179 C51.13450962 0.14702221 53.24453978 0.16845545 55.35546875 0.1953125 C57.15485901 0.20794128 57.15485901 0.20794128 58.99060059 0.2208252 C62.47938538 0.65256382 64.38053785 1.52169287 67.17773438 3.61523438 C68.33183691 5.92343945 68.29876407 7.22307714 68.29125977 9.78955078 C68.29118423 10.65029205 68.2911087 11.51103333 68.29103088 12.39785767 C68.2858696 13.3281076 68.28070831 14.25835754 68.27539062 15.21679688 C68.2732682 16.64419693 68.2732682 16.64419693 68.27110291 18.10043335 C68.2654945 21.14706534 68.25294057 24.1936245 68.24023438 27.24023438 C68.23522046 29.30273332 68.23065736 31.36523341 68.2265625 33.42773438 C68.21552233 38.49026254 68.19825204 43.5527361 68.17773438 48.61523438 C69.42385498 48.59952393 70.66997559 48.58381348 71.95385742 48.56762695 C76.58497635 48.51325364 81.21606715 48.47885726 85.84741211 48.45043945 C87.85039009 48.43536972 89.85333517 48.41491028 91.85620117 48.38891602 C94.73820118 48.3524531 97.61976422 48.33548977 100.50195312 48.32226562 C101.39484543 48.30678177 102.28773773 48.29129791 103.20768738 48.27534485 C108.01246505 48.2740495 111.30054296 48.43331684 115.17773438 51.61523438 C116.60439454 54.4685547 116.3208113 56.90711711 116.33886719 60.09692383 C116.34383209 60.76218079 116.348797 61.42743774 116.35391235 62.112854 C116.36854059 64.31808501 116.37533764 66.52324403 116.38085938 68.72851562 C116.38661104 70.26067609 116.39236878 71.79283653 116.39813232 73.32499695 C116.40864471 76.5404799 116.41448556 79.75593783 116.41796875 82.97143555 C116.42344879 87.08735328 116.44746504 91.20293941 116.4759407 95.31875324 C116.49458689 98.48523414 116.49977377 101.65163557 116.50130463 104.81816673 C116.5043281 106.33519488 116.51234636 107.85222172 116.52548981 109.36919594 C116.54258957 111.49483887 116.54066082 113.61967708 116.53417969 115.74536133 C116.53964813 117.55832451 116.53964813 117.55832451 116.54522705 119.40791321 C116.14025309 122.94235521 115.35714972 124.82342512 113.17773438 127.61523438 C110.42188086 128.53385221 108.81812747 128.7372776 105.98168945 128.72875977 C105.14104446 128.72868423 104.30039948 128.7286087 103.4342804 128.72853088 C102.53106552 128.7233696 101.62785065 128.71820831 100.69726562 128.71289062 C99.30528206 128.7107682 99.30528206 128.7107682 97.88517761 128.70860291 C94.92016379 128.70300374 91.95522538 128.69045142 88.99023438 128.67773438 C86.98046984 128.67271927 84.97070412 128.66815638 82.9609375 128.6640625 C78.03317405 128.65303459 73.105467 128.63577054 68.17773438 128.61523438 C68.20130005 130.48441528 68.20130005 130.48441528 68.2253418 132.39135742 C68.27971511 137.02247635 68.31411149 141.65356715 68.3425293 146.28491211 C68.35759903 148.28789009 68.37805847 150.29083517 68.40405273 152.29370117 C68.44051565 155.17570118 68.45747898 158.05726422 68.47070312 160.93945312 C68.48618698 161.83234543 68.50167084 162.72523773 68.5176239 163.64518738 C68.51891012 168.4161215 68.41802325 171.81475515 65.17773438 175.61523438 C61.7763977 176.74901327 59.15369216 176.75607614 55.56665039 176.77636719 C54.89964111 176.78133209 54.23263184 176.786297 53.54541016 176.79141235 C51.34080979 176.80600722 49.13628134 176.81283076 46.93164062 176.81835938 C45.39851378 176.82411214 43.86538694 176.82986986 42.33226013 176.83563232 C39.11855738 176.84613407 35.9048796 176.85198243 32.69116211 176.85546875 C28.57405421 176.86095796 24.45727627 176.88499827 20.34027195 176.9134407 C17.17383356 176.93206534 14.00747479 176.93727254 10.84098625 176.93880463 C9.32313161 176.94183107 7.80527836 176.94985938 6.28747749 176.96298981 C4.16413352 176.98005061 2.04159765 176.97817077 -0.08178711 176.97167969 C-1.28963364 176.97532532 -2.49748016 176.97897095 -3.7419281 176.98272705 C-7.10057853 176.58203089 -8.46788703 176.00404465 -10.82226562 173.61523438 C-11.74088346 170.85938086 -11.94430885 169.25562747 -11.93579102 166.41918945 C-11.93571548 165.57854446 -11.93563995 164.73789948 -11.93556213 163.8717804 C-11.93040085 162.96856552 -11.92523956 162.06535065 -11.91992188 161.13476562 C-11.91850693 160.20677658 -11.91709198 159.27878754 -11.91563416 158.32267761 C-11.91003499 155.35766379 -11.89748267 152.39272538 -11.88476562 149.42773438 C-11.87975052 147.41796984 -11.87518763 145.40820412 -11.87109375 143.3984375 C-11.86006584 138.47067405 -11.84280179 133.542967 -11.82226562 128.61523438 C-13.10391602 128.63094482 -14.38556641 128.64665527 -15.70605469 128.6628418 C-20.46201287 128.71714993 -25.21794365 128.7515878 -29.97412109 128.7800293 C-32.03243621 128.79511388 -34.0907192 128.81558425 -36.14892578 128.84155273 C-39.10782806 128.87795023 -42.0663053 128.89496404 -45.02539062 128.90820312 C-46.40528168 128.93142891 -46.40528168 128.93142891 -47.81304932 128.9551239 C-54.16783868 128.95679711 -54.16783868 128.95679711 -57.37207031 127.28442383 C-60.31419989 123.89800297 -59.96941704 120.30044797 -60.01513672 116.02001953 C-60.02331421 115.35461655 -60.0314917 114.68921356 -60.03991699 114.00364685 C-60.06470916 111.80387258 -60.08126939 109.60416249 -60.09570312 107.40429688 C-60.1010268 106.65204205 -60.10635048 105.89978722 -60.11183548 105.12473679 C-60.13853792 101.14436615 -60.1579236 97.16402659 -60.17236328 93.18359375 C-60.18571243 89.89131955 -60.21358572 86.59966371 -60.25439453 83.30761719 C-60.30370527 79.32944295 -60.32848171 75.3518303 -60.33559036 71.37336349 C-60.34230223 69.85908246 -60.35752291 68.34481392 -60.38148117 66.83070755 C-60.41313503 64.70955411 -60.4131713 62.59056628 -60.40576172 60.46923828 C-60.41384857 59.26361237 -60.42193542 58.05798645 -60.43026733 56.81582642 C-59.63827534 52.646688 -58.15385131 51.17194399 -54.82226562 48.61523438 C-52.58854675 48.01396179 -52.58854675 48.01396179 -50.30737305 48.04760742 C-49.44685837 48.04798508 -48.58634369 48.04836273 -47.69975281 48.04875183 C-46.78498672 48.07455826 -45.87022064 48.10036469 -44.92773438 48.12695312 C-43.98037918 48.13402786 -43.03302399 48.1411026 -42.05696106 48.14839172 C-39.04041541 48.17631104 -36.02574723 48.23904523 -33.00976562 48.30273438 C-30.96096437 48.32782042 -28.91213392 48.35063305 -26.86328125 48.37109375 C-21.84888942 48.42612979 -16.83589549 48.51238582 -11.82226562 48.61523438 C-11.84844971 47.3388208 -11.87463379 46.06240723 -11.90161133 44.74731445 C-11.99221978 40.00449198 -12.0495539 35.26174575 -12.09692383 30.51831055 C-12.12204369 28.46674732 -12.15614599 26.41527337 -12.19946289 24.36401367 C-12.26022565 21.41237347 -12.28850055 18.46191787 -12.31054688 15.50976562 C-12.3363533 14.59499954 -12.36215973 13.68023346 -12.38874817 12.73774719 C-12.38912582 11.87723251 -12.38950348 11.01671783 -12.38989258 10.13012695 C-12.40654716 9.00094597 -12.40654716 9.00094597 -12.42353821 7.84895325 C-10.69858759 1.44078688 -6.03146875 -0.01032959 0 0 Z M4.17773438 16.61523438 C3.92824266 30.25714693 3.92824266 30.25714693 3.69970703 43.89941406 C3.66449538 45.61199493 3.6285735 47.3245614 3.59179688 49.03710938 C3.58043701 49.92350098 3.56907715 50.80989258 3.55737305 51.72314453 C3.53731201 52.57537598 3.51725098 53.42760742 3.49658203 54.30566406 C3.48325836 55.0429071 3.46993469 55.78015015 3.45620728 56.53973389 C3.13049416 58.96732283 2.51386379 60.56321284 1.17773438 62.61523438 C-1.53175537 63.51839762 -3.22361896 63.76180937 -6.01831055 63.82055664 C-6.87066284 63.84073853 -7.72301514 63.86092041 -8.60119629 63.88171387 C-9.49270386 63.8981897 -10.38421143 63.91466553 -11.30273438 63.93164062 C-12.12535767 63.95029175 -12.94798096 63.96894287 -13.79553223 63.98815918 C-16.86683468 64.05642919 -19.93831294 64.11659559 -23.00976562 64.17773438 C-29.87789062 64.32210937 -36.74601562 64.46648437 -43.82226562 64.61523438 C-43.82226562 80.45523438 -43.82226562 96.29523438 -43.82226562 112.61523438 C-30.18035307 112.86472609 -30.18035307 112.86472609 -16.53808594 113.09326172 C-14.82550507 113.12847337 -13.1129386 113.16439525 -11.40039062 113.20117188 C-10.51399902 113.21253174 -9.62760742 113.2238916 -8.71435547 113.2355957 C-7.86212402 113.25565674 -7.00989258 113.27571777 -6.13183594 113.29638672 C-5.3945929 113.30971039 -4.65734985 113.32303406 -3.89776611 113.33676147 C-1.4975888 113.65879673 0.12104105 114.34774872 2.17773438 115.61523438 C3.31929658 117.89835878 3.33107809 119.25002743 3.38305664 121.78955078 C3.40323853 122.66232666 3.42342041 123.53510254 3.44421387 124.43432617 C3.4606897 125.3525415 3.47716553 126.27075684 3.49414062 127.21679688 C3.51279175 128.06008545 3.53144287 128.90337402 3.55065918 129.7722168 C3.61905631 132.92811414 3.67914149 136.08418719 3.74023438 139.24023438 C3.88460937 146.29398438 4.02898437 153.34773437 4.17773438 160.61523438 C20.01773438 160.61523438 35.85773438 160.61523438 52.17773438 160.61523438 C52.3481487 146.64424619 52.3481487 146.64424619 52.47558594 132.67285156 C52.50495484 130.91924409 52.53578048 129.16566015 52.56835938 127.41210938 C52.5694873 126.50412598 52.57061523 125.59614258 52.57177734 124.66064453 C52.65661123 120.92588429 52.77692084 118.33889498 54.60351562 115.04101562 C58.61680292 112.8181782 62.4556283 113.01147302 66.97460938 113.00585938 C67.81588379 112.99022949 68.6571582 112.97459961 69.52392578 112.95849609 C72.65824326 112.90600347 75.79305749 112.8876478 78.92773438 112.86523438 C85.94023437 112.78273438 92.95273437 112.70023437 100.17773438 112.61523438 C100.17773438 96.77523437 100.17773438 80.93523437 100.17773438 64.61523438 C86.1616731 64.36564686 86.1616731 64.36564686 72.14526367 64.13720703 C70.38914461 64.10200414 68.63303973 64.06608323 66.87695312 64.02929688 C65.96385376 64.01793701 65.05075439 64.00657715 64.10998535 63.99487305 C63.23733032 63.97481201 62.36467529 63.95475098 61.46557617 63.93408203 C60.32973335 63.91409653 60.32973335 63.91409653 59.17094421 63.89370728 C57.17773438 63.61523438 57.17773438 63.61523438 54.17773438 61.61523438 C53.27457113 58.90574463 53.03115938 57.21388104 52.97241211 54.41918945 C52.95223022 53.56683716 52.93204834 52.71448486 52.91125488 51.83630371 C52.88654114 50.49904236 52.88654114 50.49904236 52.86132812 49.13476562 C52.842677 48.31214233 52.82402588 47.48951904 52.80480957 46.64196777 C52.73653956 43.57066532 52.67637316 40.49918706 52.61523438 37.42773438 C52.39867187 27.12554687 52.39867187 27.12554687 52.17773438 16.61523438 C36.33773437 16.61523438 20.49773437 16.61523438 4.17773438 16.61523438 Z " fill="#000000" transform="translate(227.822265625,111.384765625)"/>
<path d="M0 0 C25.73446685 -1.30115032 49.82945271 6.42445107 69.27294922 23.66845703 C70.84098077 25.14175854 72.40402266 26.62040103 73.96044922 28.10595703 C74.8634375 28.89679688 74.8634375 28.89679688 75.78466797 29.70361328 C91.68266776 44.19339864 101.26214822 68.30776158 102.30419922 89.53955078 C102.59341794 100.40350431 101.82655223 110.5886051 98.96044922 121.10595703 C98.70521484 122.09080078 98.44998047 123.07564453 98.18701172 124.09033203 C94.13423281 137.84747144 86.67950443 150.6262801 76.96044922 161.10595703 C75.86410156 162.30478516 75.86410156 162.30478516 74.74560547 163.52783203 C58.00834873 181.05929955 32.96425266 191.93660298 8.68212891 192.53759766 C-20.07688625 192.60409249 -44.32702016 181.78486293 -64.64794922 161.55908203 C-76.62312371 149.05447878 -83.70845952 133.64125687 -88.03955078 117.10595703 C-88.28576172 116.21005859 -88.53197266 115.31416016 -88.78564453 114.39111328 C-94.17240767 90.87510594 -88.22403981 65.50063179 -75.87841797 45.19628906 C-61.04288101 21.92068247 -38.58939083 7.4960998 -12.03955078 1.10595703 C-8.00475579 0.28686331 -4.0979199 0.2128917 0 0 Z M-34.03955078 13.10595703 C-34.74534332 15.32134714 -34.74534332 15.32134714 -34.60717773 17.62084961 C-34.60680008 18.48136429 -34.60642242 19.34187897 -34.60603333 20.22846985 C-34.5802269 21.14323593 -34.55442047 22.05800201 -34.52783203 23.00048828 C-34.51721992 24.42152107 -34.51721992 24.42152107 -34.50639343 25.8712616 C-34.47847412 28.88780725 -34.41573993 31.90247543 -34.35205078 34.91845703 C-34.32696474 36.96725829 -34.30415211 39.01608874 -34.28369141 41.06494141 C-34.22865537 46.07933324 -34.14239934 51.09232717 -34.03955078 56.10595703 C-35.31596436 56.07977295 -36.59237793 56.05358887 -37.9074707 56.02661133 C-42.65029318 55.93600287 -47.3930394 55.87866876 -52.13647461 55.83129883 C-54.18803784 55.80617897 -56.23951179 55.77207667 -58.29077148 55.72875977 C-61.24241169 55.66799701 -64.19286729 55.63972211 -67.14501953 55.61767578 C-68.05978561 55.59186935 -68.9745517 55.56606293 -69.91703796 55.53947449 C-70.77755264 55.53909683 -71.63806732 55.53871918 -72.5246582 55.53833008 C-73.27744553 55.52722702 -74.03023285 55.51612396 -74.80583191 55.50468445 C-78.32711899 56.45254472 -79.82574329 58.26945022 -82.03955078 61.10595703 C-82.77788988 64.34655551 -82.77788988 64.34655551 -82.65478516 67.92822266 C-82.66033417 68.59391769 -82.66588318 69.25961273 -82.67160034 69.94548035 C-82.68336377 72.1351331 -82.65915987 74.32270063 -82.63330078 76.51220703 C-82.63158867 78.04007879 -82.63165639 79.56795349 -82.63342285 81.0958252 C-82.63177151 84.29366263 -82.61310917 87.49079742 -82.58154297 90.68847656 C-82.54186526 94.78087645 -82.53749873 98.87235668 -82.5450058 102.96491241 C-82.54808006 106.11859514 -82.5359389 109.27207236 -82.51887512 112.42570496 C-82.51185987 113.93432831 -82.5087188 115.44297495 -82.50956726 116.95161438 C-82.50776295 119.06273228 -82.48632971 121.17276244 -82.45947266 123.28369141 C-82.45105347 124.48328491 -82.44263428 125.68287842 -82.43395996 126.91882324 C-82.00222134 130.40760804 -81.13309229 132.30876051 -79.03955078 135.10595703 C-76.7313457 136.26005957 -75.43170802 136.22698673 -72.86523438 136.21948242 C-72.0044931 136.21940689 -71.14375183 136.21933136 -70.25692749 136.21925354 C-69.32667755 136.21409225 -68.39642761 136.20893097 -67.43798828 136.20361328 C-66.48638824 136.20219833 -65.53478821 136.20078339 -64.55435181 136.19932556 C-61.50771981 136.19371715 -58.46116066 136.18116323 -55.41455078 136.16845703 C-53.35205184 136.16344311 -51.28955175 136.15888002 -49.22705078 136.15478516 C-44.16452261 136.14374499 -39.10204906 136.1264747 -34.03955078 136.10595703 C-34.06311646 137.97513794 -34.06311646 137.97513794 -34.0871582 139.88208008 C-34.14153152 144.51319901 -34.17592789 149.14428981 -34.2043457 153.77563477 C-34.21941543 155.77861275 -34.23987488 157.78155783 -34.26586914 159.78442383 C-34.30233205 162.66642384 -34.31929539 165.54798688 -34.33251953 168.43017578 C-34.34800339 169.32306808 -34.36348724 170.21596039 -34.37944031 171.13591003 C-34.38073565 175.94068771 -34.22146831 179.22876562 -31.03955078 183.10595703 C-28.18623046 184.53261719 -25.74766805 184.24903396 -22.55786133 184.26708984 C-21.89260437 184.27205475 -21.22734741 184.27701965 -20.54193115 184.28213501 C-18.33670015 184.29676325 -16.13154112 184.30356029 -13.92626953 184.30908203 C-12.39410907 184.3148337 -10.86194863 184.32059143 -9.32978821 184.32635498 C-6.11430526 184.33686737 -2.89884733 184.34270822 0.31665039 184.34619141 C4.43256812 184.35167145 8.54815425 184.3756877 12.66396809 184.40416336 C15.83044899 184.42280954 18.99685041 184.42799642 22.16338158 184.42952728 C23.68040972 184.43255075 25.19743656 184.44056901 26.71441078 184.45371246 C28.84005371 184.47081222 30.96489192 184.46888348 33.09057617 184.46240234 C34.29921829 184.46604797 35.50786041 184.4696936 36.75312805 184.47344971 C40.28757006 184.06847575 42.16863997 183.28537238 44.96044922 181.10595703 C45.87906706 178.35010351 46.08249244 176.74635013 46.07397461 173.90991211 C46.07389908 173.06926712 46.07382355 172.22862213 46.07374573 171.36250305 C46.06858444 170.45928818 46.06342316 169.5560733 46.05810547 168.62548828 C46.05669052 167.69749924 46.05527557 166.76951019 46.05381775 165.81340027 C46.04821859 162.84838645 46.03566626 159.88344804 46.02294922 156.91845703 C46.01793411 154.9086925 46.01337122 152.89892678 46.00927734 150.88916016 C45.99824943 145.96139671 45.98098539 141.03368966 45.96044922 136.10595703 C47.20656982 136.12166748 48.45269043 136.13737793 49.73657227 136.15356445 C54.3676912 136.20793777 58.998782 136.24233414 63.63012695 136.27075195 C65.63310494 136.28582168 67.63605002 136.30628113 69.63891602 136.33227539 C72.52091603 136.3687383 75.40247906 136.38570164 78.28466797 136.39892578 C79.17756027 136.41440964 80.07045258 136.42989349 80.99040222 136.44584656 C85.76133634 136.44713278 89.15996999 136.34624591 92.96044922 133.10595703 C94.09422811 129.70462036 94.10129098 127.08191481 94.12158203 123.49487305 C94.12654694 122.82786377 94.13151184 122.16085449 94.1366272 121.47363281 C94.15122206 119.26903245 94.1580456 117.064504 94.16357422 114.85986328 C94.16932699 113.32673643 94.17508471 111.7936096 94.18084717 110.26048279 C94.19134892 107.04678004 94.19719728 103.83310226 94.20068359 100.61938477 C94.2061728 96.50227686 94.23021311 92.38549893 94.25865555 88.26849461 C94.27728019 85.10205622 94.28248738 81.93569744 94.28401947 78.76920891 C94.28704592 77.25135426 94.29507422 75.73350102 94.30820465 74.21570015 C94.32526546 72.09235618 94.32338562 69.9698203 94.31689453 67.84643555 C94.32054016 66.63858902 94.32418579 65.43074249 94.32794189 64.18629456 C93.92724573 60.82764413 93.3492595 59.46033563 90.96044922 57.10595703 C88.2045957 56.18733919 86.60084232 55.98391381 83.7644043 55.99243164 C82.50343681 55.99254494 82.50343681 55.99254494 81.21699524 55.99266052 C80.31378036 55.99782181 79.41056549 56.00298309 78.47998047 56.00830078 C77.55199142 56.00971573 76.62400238 56.01113068 75.66789246 56.0125885 C72.70287864 56.01818766 69.73794023 56.03073999 66.77294922 56.04345703 C64.76318468 56.04847214 62.75341897 56.05303503 60.74365234 56.05712891 C55.8158889 56.06815682 50.88818185 56.08542086 45.96044922 56.10595703 C45.97615967 54.82430664 45.99187012 53.54265625 46.00805664 52.22216797 C46.06236478 47.46620979 46.09680264 42.71027901 46.12524414 37.95410156 C46.14032872 35.89578644 46.16079909 33.83750345 46.18676758 31.77929688 C46.22316507 28.8203946 46.24017888 25.86191736 46.25341797 22.90283203 C46.26890182 21.98290466 46.28438568 21.06297729 46.30033875 20.11517334 C46.3262672 15.14433177 46.3262672 15.14433177 44.62963867 10.55615234 C41.24321781 7.61402277 37.64566281 7.95880561 33.36523438 7.91308594 C32.69983139 7.90490845 32.03442841 7.89673096 31.34886169 7.88830566 C29.14908743 7.8635135 26.94937733 7.84695326 24.74951172 7.83251953 C23.62112947 7.82453402 23.62112947 7.82453402 22.46995163 7.81638718 C18.48958099 7.78968474 14.50924143 7.77029906 10.52880859 7.75585938 C7.23653439 7.74251023 3.94487856 7.71463693 0.65283203 7.67382812 C-3.3253422 7.62451739 -7.30295486 7.59974095 -11.28142166 7.59263229 C-12.7957027 7.58592043 -14.30997123 7.57069975 -15.82407761 7.54674149 C-17.94523104 7.51508763 -20.06421887 7.51505136 -22.18554688 7.52246094 C-23.39117279 7.51437408 -24.59679871 7.50628723 -25.83895874 7.49795532 C-30.00809715 8.28994732 -31.48284117 9.77437135 -34.03955078 13.10595703 Z " fill="#D6E0EA" transform="translate(250.03955078125,103.89404296875)"/>
<path d="M0 0 C5.28 0.99 10.56 1.98 16 3 C15.67 7.95 15.34 12.9 15 18 C9.39 18 3.78 18 -2 18 C-1.855625 15.586875 -1.71125 13.17375 -1.5625 10.6875 C-1.51939697 9.93170654 -1.47629395 9.17591309 -1.43188477 8.3972168 C-1.24164809 5.39405127 -0.95599652 2.86798955 0 0 Z " fill="#000102" transform="translate(58,182)"/>
<path d="M0 0 C1.8417395 5.64800112 2.54775239 11.08507728 3 17 C-1.54601728 19.27300864 -8.08679597 18.68734156 -13 19 C-13.99 14.05 -14.98 9.1 -16 4 C-3.375 0 -3.375 0 0 0 Z " fill="#030508" transform="translate(388,166)"/>
</svg>
