<?xml version="1.0" encoding="UTF-8"?>
<svg version="1.1" xmlns="http://www.w3.org/2000/svg" width="512" height="512">
<path d="M0 0 C0.80487854 -0.00979385 1.60975708 -0.01958771 2.43902588 -0.02967834 C28.78005469 -0.28394943 53.11454734 1.88168154 78.28515625 10.23828125 C78.99285156 10.47272949 79.70054687 10.70717773 80.4296875 10.94873047 C120.24559361 24.43322831 156.7995608 50.94779012 181.28515625 85.23828125 C181.76936035 85.91584473 182.25356445 86.5934082 182.75244141 87.29150391 C214.51197502 132.26463481 228.62557212 187.63505471 219.79199219 242.28955078 C214.72849239 270.83627639 204.9527631 297.69022322 191.28515625 323.23828125 C190.9092334 323.9461377 190.53331055 324.65399414 190.14599609 325.38330078 C171.45952851 360.37740196 146.84892057 390.96817731 120.28515625 420.23828125 C119.40085937 421.21667969 118.5165625 422.19507813 117.60546875 423.203125 C111.89255752 429.48447532 106.02756623 435.59781548 100.03515625 441.61328125 C99.38603271 442.26699707 98.73690918 442.92071289 98.06811523 443.59423828 C94.24420785 447.40601244 90.30468411 451.02223901 86.21826172 454.55029297 C83.2295014 457.16007938 80.35860365 459.89106668 77.47265625 462.61328125 C72.48450488 467.28062759 67.38916744 471.72772982 62.0546875 476 C59.51739945 478.05058682 57.03136473 480.14655175 54.55419922 482.26855469 C48.25128195 487.66356733 41.81684208 492.85227845 35.16894531 497.81835938 C33.80156253 498.84903567 32.44259238 499.89090298 31.08886719 500.93945312 C28.73044553 502.76602563 26.35345985 504.56601513 23.97265625 506.36328125 C23.23184814 506.9444873 22.49104004 507.52569336 21.7277832 508.12451172 C18.30081202 510.67258545 15.49975873 512.61353699 11.15625 512.875 C6.76586774 512.15286851 4.06201639 510.63031273 0.66015625 507.92578125 C0.06678467 507.4779126 -0.52658691 507.03004395 -1.13793945 506.56860352 C-3.01275912 505.14453048 -4.86436315 503.69379185 -6.71484375 502.23828125 C-7.92388216 501.30521548 -9.13351069 500.37291385 -10.34375 499.44140625 C-24.70528478 488.32146943 -38.78096506 476.74530167 -52.203125 464.50390625 C-54.29582851 462.61624212 -56.40878021 460.75949263 -58.53515625 458.91015625 C-72.62867845 446.59948022 -86.83901974 433.63177063 -98.921875 419.3125 C-100.89714639 417.02738211 -102.94679839 414.82462718 -105.0090332 412.61816406 C-110.85303548 406.36169707 -116.37227807 399.93214914 -121.71484375 393.23828125 C-122.64740283 392.09681016 -123.58105611 390.95623241 -124.515625 389.81640625 C-144.14931371 365.75491338 -161.38821971 339.30816422 -174.71484375 311.23828125 C-175.07433105 310.49271973 -175.43381836 309.7471582 -175.80419922 308.97900391 C-185.59127755 288.57687316 -192.3903548 267.43981523 -196.71484375 245.23828125 C-196.94945312 244.06007812 -197.1840625 242.881875 -197.42578125 241.66796875 C-206.21159252 189.84441531 -192.81541088 133.7672455 -162.80566406 90.84790039 C-158.69646522 85.09602846 -154.34198212 79.58371186 -149.71484375 74.23828125 C-149.02132812 73.43390625 -148.3278125 72.62953125 -147.61328125 71.80078125 C-110.78870256 30.02162288 -56.59709973 0.57495636 0 0 Z M-92.71484375 102.23828125 C-93.59914062 103.058125 -94.4834375 103.87796875 -95.39453125 104.72265625 C-121.520076 129.73805037 -138.00138162 166.95893146 -138.91796875 203.1015625 C-139.40735285 243.13813741 -128.06314167 278.57353862 -101.71484375 309.23828125 C-100.95945313 310.11742187 -100.2040625 310.9965625 -99.42578125 311.90234375 C-75.79997619 338.77568215 -39.62121265 357.65825035 -3.71484375 360.23828125 C12.35032427 360.86562226 28.60815904 361.19844873 44.28515625 357.23828125 C45.0750293 357.03960449 45.86490234 356.84092773 46.67871094 356.63623047 C71.32542378 350.22231982 92.32459876 339.17740279 111.28515625 322.23828125 C112.10628906 321.54992187 112.92742187 320.8615625 113.7734375 320.15234375 C119.73850136 315.10418953 124.49438961 309.39186633 129.28515625 303.23828125 C129.99285156 302.39265625 130.70054687 301.54703125 131.4296875 300.67578125 C155.39971391 270.96158635 164.01969755 231.90027452 161.06689453 194.47167969 C157.36677943 160.87801608 142.40773067 130.66245755 119.28515625 106.23828125 C118.4653125 105.35398438 117.64546875 104.4696875 116.80078125 103.55859375 C91.40369097 77.03441366 54.27698233 61.24915008 17.7265625 60.01953125 C-24.26641677 59.12389815 -62.08847192 73.24403581 -92.71484375 102.23828125 Z " fill="#56A2FE" transform="translate(244.71484375,-0.23828125)"/>
<path d="M0 0 C0.80487854 -0.00979385 1.60975708 -0.01958771 2.43902588 -0.02967834 C28.78005469 -0.28394943 53.11454734 1.88168154 78.28515625 10.23828125 C78.99285156 10.47272949 79.70054687 10.70717773 80.4296875 10.94873047 C120.24559361 24.43322831 156.7995608 50.94779012 181.28515625 85.23828125 C181.76936035 85.91584473 182.25356445 86.5934082 182.75244141 87.29150391 C214.51197502 132.26463481 228.62557212 187.63505471 219.79199219 242.28955078 C214.72849239 270.83627639 204.9527631 297.69022322 191.28515625 323.23828125 C190.9092334 323.9461377 190.53331055 324.65399414 190.14599609 325.38330078 C171.45952851 360.37740196 146.84892057 390.96817731 120.28515625 420.23828125 C119.40085937 421.21667969 118.5165625 422.19507813 117.60546875 423.203125 C111.89255752 429.48447532 106.02756623 435.59781548 100.03515625 441.61328125 C99.38603271 442.26699707 98.73690918 442.92071289 98.06811523 443.59423828 C94.24420785 447.40601244 90.30468411 451.02223901 86.21826172 454.55029297 C83.2295014 457.16007938 80.35860365 459.89106668 77.47265625 462.61328125 C72.48450488 467.28062759 67.38916744 471.72772982 62.0546875 476 C59.51739945 478.05058682 57.03136473 480.14655175 54.55419922 482.26855469 C48.25128195 487.66356733 41.81684208 492.85227845 35.16894531 497.81835938 C33.80156253 498.84903567 32.44259238 499.89090298 31.08886719 500.93945312 C28.73044553 502.76602563 26.35345985 504.56601513 23.97265625 506.36328125 C23.23184814 506.9444873 22.49104004 507.52569336 21.7277832 508.12451172 C18.30081202 510.67258545 15.49975873 512.61353699 11.15625 512.875 C6.76586774 512.15286851 4.06201639 510.63031273 0.66015625 507.92578125 C0.06678467 507.4779126 -0.52658691 507.03004395 -1.13793945 506.56860352 C-3.01275912 505.14453048 -4.86436315 503.69379185 -6.71484375 502.23828125 C-7.92388216 501.30521548 -9.13351069 500.37291385 -10.34375 499.44140625 C-24.70528478 488.32146943 -38.78096506 476.74530167 -52.203125 464.50390625 C-54.29582851 462.61624212 -56.40878021 460.75949263 -58.53515625 458.91015625 C-72.62867845 446.59948022 -86.83901974 433.63177063 -98.921875 419.3125 C-100.89714639 417.02738211 -102.94679839 414.82462718 -105.0090332 412.61816406 C-110.85303548 406.36169707 -116.37227807 399.93214914 -121.71484375 393.23828125 C-122.64740283 392.09681016 -123.58105611 390.95623241 -124.515625 389.81640625 C-144.14931371 365.75491338 -161.38821971 339.30816422 -174.71484375 311.23828125 C-175.07433105 310.49271973 -175.43381836 309.7471582 -175.80419922 308.97900391 C-185.59127755 288.57687316 -192.3903548 267.43981523 -196.71484375 245.23828125 C-196.94945312 244.06007812 -197.1840625 242.881875 -197.42578125 241.66796875 C-206.21159252 189.84441531 -192.81541088 133.7672455 -162.80566406 90.84790039 C-158.69646522 85.09602846 -154.34198212 79.58371186 -149.71484375 74.23828125 C-149.02132812 73.43390625 -148.3278125 72.62953125 -147.61328125 71.80078125 C-110.78870256 30.02162288 -56.59709973 0.57495636 0 0 Z M-130.64453125 76.98046875 C-146.58337498 94.3628304 -159.50560058 114.54348472 -168.71484375 136.23828125 C-169.22660156 137.43066406 -169.73835938 138.62304688 -170.265625 139.8515625 C-183.04742605 171.0112993 -185.97801072 206.11725116 -180.71484375 239.23828125 C-180.59125488 240.04894043 -180.46766602 240.85959961 -180.34033203 241.69482422 C-171.75455368 296.4877006 -139.66639714 345.4586257 -104.71484375 387.23828125 C-104.21774902 387.83447266 -103.7206543 388.43066406 -103.20849609 389.04492188 C-90.98336971 403.65868086 -77.78826151 417.25645936 -64.33984375 430.73828125 C-63.72802246 431.35278137 -63.11620117 431.96728149 -62.48583984 432.60040283 C-56.07207098 439.03544492 -49.65233041 445.36256846 -42.71484375 451.23828125 C-41.10716002 452.69273642 -39.5024466 454.1504902 -37.90234375 455.61328125 C-32.65347149 460.3444347 -27.20922299 464.7970491 -21.71484375 469.23828125 C-20.48364288 470.24910892 -19.25321757 471.26088174 -18.0234375 472.2734375 C-14.64803202 475.0481954 -11.25342885 477.79775044 -7.84375 480.53027344 C-6.39750207 481.69058886 -4.95491075 482.85547373 -3.515625 484.02441406 C-1.36751309 485.76096294 0.79925744 487.47104123 2.97265625 489.17578125 C3.63160889 489.71436768 4.29056152 490.2529541 4.96948242 490.80786133 C8.47111145 493.60339767 8.47111145 493.60339767 12.7578125 493.94140625 C16.36405833 491.51123132 19.70596598 488.84562808 23.03515625 486.05078125 C24.47336715 484.86126402 25.91216413 483.67245503 27.3515625 482.484375 C28.03621582 481.91702637 28.72086914 481.34967773 29.42626953 480.76513672 C31.57391333 479.00110148 33.76175199 477.29719157 35.97265625 475.61328125 C40.20821446 472.35391836 44.27323724 468.90032727 48.33740234 465.43188477 C51.87906613 462.41251545 55.46848598 459.46519122 59.09765625 456.55078125 C63.02633047 453.3565983 66.65604897 450.02773857 70.140625 446.35546875 C71.9062753 444.6123313 73.69294617 443.03210704 75.58203125 441.4296875 C81.78805961 436.03999662 87.52163595 430.15047996 93.3215332 424.33227539 C95.34279893 422.30565145 97.36935199 420.28442578 99.39648438 418.26367188 C105.57186483 412.09176202 111.66267005 405.92524229 117.28515625 399.23828125 C118.30572076 398.08079385 119.32917313 396.92584641 120.35546875 395.7734375 C128.45825793 386.59115193 135.96322003 377.05041913 143.28515625 367.23828125 C144.24343603 365.96740753 145.20176758 364.69657285 146.16015625 363.42578125 C152.98575235 354.31296744 159.25829676 344.89553704 165.28515625 335.23828125 C165.69588379 334.58730469 166.10661133 333.93632812 166.52978516 333.265625 C196.33812307 285.72594795 213.37134276 229.25795916 202.28515625 173.23828125 C202.12950195 172.40635254 201.97384766 171.57442383 201.81347656 170.71728516 C192.61519945 122.71549773 162.56484183 78.33752046 122.43505859 50.68554688 C97.94779063 34.20127201 71.25618213 23.68524264 42.28515625 18.23828125 C41.11082031 18.01140625 39.93648437 17.78453125 38.7265625 17.55078125 C-23.63961843 7.71427517 -87.17611604 32.22885309 -130.64453125 76.98046875 Z " fill="#004FAB" transform="translate(244.71484375,-0.23828125)"/>
<path d="M0 0 C2.50997307 0.00313837 5.01873793 -0.02030251 7.52856445 -0.0456543 C22.43679646 -0.10489182 37.2727665 1.46946482 51.53833008 6.00317383 C52.35720703 6.25736084 53.17608398 6.51154785 54.01977539 6.7734375 C96.68819582 20.4859416 132.03214033 50.25540142 152.85083008 89.87817383 C163.13172567 109.97436553 170.53772771 131.73110435 170.67895508 154.52270508 C170.68587875 155.2818219 170.69280243 156.04093872 170.69993591 156.82305908 C170.71711971 159.2581505 170.72352222 161.69302464 170.72583008 164.12817383 C170.72716949 164.95759491 170.72850891 165.78701599 170.72988892 166.64157104 C170.72562293 178.79596252 170.20921496 190.42862796 167.47583008 202.31567383 C167.16838867 203.86061523 167.16838867 203.86061523 166.85473633 205.43676758 C160.33301389 235.29086345 144.04502214 261.21359571 123.47583008 283.31567383 C122.82485352 284.03239258 122.17387695 284.74911133 121.50317383 285.48754883 C105.7957932 302.07260583 85.55234584 313.94431437 64.47583008 322.31567383 C63.33887695 322.7771582 62.20192383 323.23864258 61.03051758 323.71411133 C20.53676829 339.21635873 -24.87806166 336.02193242 -64.13037109 318.76757812 C-82.87131198 310.26567651 -98.74292147 298.53955997 -113.52416992 284.31567383 C-114.20350586 283.69950195 -114.8828418 283.08333008 -115.58276367 282.44848633 C-133.50852872 265.67802007 -145.36458096 243.14623249 -153.52416992 220.31567383 C-153.90677979 219.27032471 -153.90677979 219.27032471 -154.29711914 218.20385742 C-160.48976143 201.06432958 -161.79494497 184.03501149 -161.83666992 165.94067383 C-161.84034576 165.17339966 -161.84402161 164.40612549 -161.84780884 163.61560059 C-161.94461296 124.88359937 -148.20667858 87.47367136 -122.52416992 58.31567383 C-121.75975586 57.44168945 -120.9953418 56.56770508 -120.20776367 55.66723633 C-89.80333465 21.40437722 -46.08406803 -0.1198834 0 0 Z M-99.52416992 58.31567383 C-100.4084668 59.13551758 -101.29276367 59.95536133 -102.20385742 60.80004883 C-128.32940217 85.81544295 -144.81070779 123.03632403 -145.72729492 159.17895508 C-146.21667902 199.21552999 -134.87246784 234.6509312 -108.52416992 265.31567383 C-107.7687793 266.19481445 -107.01338867 267.07395508 -106.23510742 267.97973633 C-82.60930236 294.85307473 -46.43053882 313.73564293 -10.52416992 316.31567383 C5.5409981 316.94301484 21.79883286 317.2758413 37.47583008 313.31567383 C38.26570312 313.11699707 39.05557617 312.91832031 39.86938477 312.71362305 C64.5160976 306.2997124 85.51527259 295.25479536 104.47583008 278.31567383 C105.29696289 277.62731445 106.1180957 276.93895508 106.96411133 276.22973633 C112.92917519 271.18158211 117.68506343 265.46925891 122.47583008 259.31567383 C123.18352539 258.47004883 123.8912207 257.62442383 124.62036133 256.75317383 C148.59038774 227.03897892 157.21037138 187.9776671 154.25756836 150.54907227 C150.55745326 116.95540866 135.5984045 86.73985012 112.47583008 62.31567383 C111.65598633 61.43137695 110.83614258 60.54708008 109.99145508 59.63598633 C84.5943648 33.11180624 47.46765616 17.32654266 10.91723633 16.09692383 C-31.07574295 15.20129073 -68.89779809 29.32142839 -99.52416992 58.31567383 Z " fill="#004FAB" transform="translate(251.524169921875,43.684326171875)"/>
<path d="M0 0 C0.87785156 0.84884766 0.87785156 0.84884766 1.7734375 1.71484375 C11.98355554 11.57920082 27.09713928 16.47131368 41.0234375 17.08984375 C55.32125519 16.6371424 70.03277232 11.77442336 80.4609375 1.77734375 C83.795043 -1.32010291 86.248543 -2.33588993 90.796875 -2.484375 C102.44557305 -1.82465909 113.13473385 1.93582728 121.2109375 10.65234375 C128.90416531 20.16930676 129.66484723 31.47117146 129.57421875 43.2734375 C129.57496651 45.16691673 129.57496651 45.16691673 129.57572937 47.09864807 C129.57340254 49.74699563 129.565373 52.39452102 129.54711914 55.04272461 C129.52427082 58.43093556 129.52392587 61.81870216 129.53063679 65.20696926 C129.53478037 68.45832548 129.52281474 71.70960285 129.51171875 74.9609375 C129.51263016 76.17446396 129.51354156 77.38799042 129.51448059 78.63829041 C129.50494858 79.76368729 129.49541656 80.88908417 129.4855957 82.04858398 C129.48098831 83.03688705 129.47638092 84.02519012 129.47163391 85.04344177 C129.19586084 87.80322244 128.79001433 89.37913371 127.2109375 91.65234375 C123.71450068 93.95947105 120.65142987 93.90372281 116.53076172 93.90631104 C115.8604637 93.90943102 115.19016567 93.912551 114.49955559 93.91576552 C112.25482245 93.92373909 110.01036012 93.91742449 107.765625 93.91113281 C106.15578045 93.91384296 104.54593715 93.91740403 102.93609619 93.92175293 C98.5642722 93.93087635 94.19254252 93.92733287 89.82071686 93.92099476 C85.24750004 93.91593454 80.67429135 93.92062628 76.10107422 93.92376709 C68.42088367 93.92740667 60.74073158 93.92260785 53.06054688 93.91308594 C44.1786815 93.9022014 35.29690794 93.90572699 26.41504478 93.91673875 C18.79202678 93.92581186 11.16903644 93.92709678 3.54601479 93.92186141 C-1.00809611 93.91874184 -5.56216384 93.91833201 -10.11627197 93.92493439 C-14.39754794 93.93070756 -18.67870541 93.92671148 -22.95996857 93.91514587 C-24.53214572 93.91249914 -26.10433283 93.91326462 -27.67650604 93.9176712 C-29.82076802 93.9231276 -31.96464908 93.91629164 -34.10888672 93.90631104 C-35.30939667 93.90555698 -36.50990662 93.90480293 -37.74679565 93.90402603 C-40.6918304 93.66038762 -42.34582465 93.26475942 -44.7890625 91.65234375 C-46.95073514 88.53445296 -47.05062766 85.8119873 -47.07958984 82.08032227 C-47.09234955 80.96138077 -47.10510925 79.84243927 -47.11825562 78.68959045 C-47.12048126 77.4823381 -47.12270691 76.27508575 -47.125 75.03125 C-47.1316568 73.78037094 -47.1383136 72.52949188 -47.14517212 71.2407074 C-47.15530419 68.5884686 -47.16085389 65.9366394 -47.15966797 63.28442383 C-47.15950622 60.58720854 -47.17325878 57.89067813 -47.20068359 55.19360352 C-47.23763539 51.2851109 -47.24715595 47.37740081 -47.25 43.46875 C-47.26437103 42.27971573 -47.27874207 41.09068146 -47.29354858 39.86561584 C-47.23396402 28.75572819 -45.18063336 18.1979858 -37.76953125 9.5859375 C-29.68134896 1.68919148 -10.74520109 -8.09409252 0 0 Z " fill="#0150AC" transform="translate(214.7890625,207.34765625)"/>
<path d="M0 0 C10.4591183 8.85612748 18.52340689 22.14682565 20.13671875 35.9296875 C21.13033584 52.45510864 18.40213143 67.54891136 7.44824219 80.63476562 C-3.01529542 92.39973826 -16.34502467 99.15536174 -32.1015625 100.3046875 C-48.29486877 101.0042061 -61.7363069 96.17939721 -74.05078125 85.6796875 C-84.55984943 75.78007939 -91.23545877 62.95280147 -92.06640625 48.36328125 C-92.27272794 30.77435727 -87.77966349 16.18710084 -75.3125 3.1484375 C-53.77916042 -16.35863887 -23.24757324 -16.80929579 0 0 Z " fill="#004FAB" transform="translate(291.86328125,110.0703125)"/>
<path d="M0 0 C1.96484375 1.28515625 1.96484375 1.28515625 3.9375 3.0625 C20.28928489 16.43631082 39.48424666 19.65221376 60 18 C66.13326037 17.11785351 72.01090969 15.60165027 77.8125 13.4375 C78.48611572 13.18718018 79.15973145 12.93686035 79.85375977 12.67895508 C87.08927385 9.82236084 94.4682383 5.5317617 100 0 C106.2493876 0.38261557 111.89559853 2.14088457 116.58203125 6.45703125 C128.70223556 20.25380561 121 51.38546243 121 62 C74.14 62 27.28 62 -21 62 C-21 11.5811138 -21 11.5811138 -16.38671875 6.07421875 C-11.32652446 1.9446349 -6.73767669 -0.60505772 0 0 Z " fill="#56A2FE" transform="translate(206,222)"/>
<path d="M0 0 C9.25111569 6.69453956 15.36792046 14.83144628 18 26 C19.19354239 39.48980464 17.17389634 50.22399281 8.42578125 60.92578125 C1.80822502 68.29249479 -6.07243944 72.75957321 -15.96875 73.5078125 C-17.72853776 73.56896594 -19.48923146 73.60806327 -21.25 73.625 C-22.07725586 73.63595703 -22.90451172 73.64691406 -23.75683594 73.65820312 C-33.41287367 73.4346302 -41.60198145 69.08387437 -48.625 62.5625 C-49.800625 61.2940625 -49.800625 61.2940625 -51 60 C-51.99 58.948125 -51.99 58.948125 -53 57.875 C-60.59224362 46.9611498 -61.69155608 36.08001043 -59.5234375 23.16015625 C-56.51617757 12.85213876 -48.83890614 4.17330075 -39.78515625 -1.3515625 C-27.74426085 -7.58502418 -11.49960491 -7.17468061 0 0 Z " fill="#56A2FE" transform="translate(277,120)"/>
</svg>
